# xmcd
#
# Track frame offsets:
#	150
#	19838
#	34896
#	48327
#	71131
#	87165
#	103653
#	120000
#	134330
#	148994
#	168667
#	183704
#	198838
#	216316
#	230156
#	246100
#	261416
#	279914
#	295017
#	310317
#	332651
#
# Disc length: 4632 seconds
#
# Revision: 0
# Processed by: cddbd v1.5.1PL0 Copyright (c) Steve Scherf et al.
# Submitted via: EasyCDDAExtractor 8.0.0.2
#
DISCID=44121615
DTITLE=Willi Tokarev - Chernogolovka
DYEAR=2004
DGENRE=Chanson
TTITLE0=Chernogolovka
TTITLE1=Stakanchiki
TTITLE2=Vodochka
TTITLE3=Na Deribasovskoy
TTITLE4=Pod vodku Bogorodskuyu
TTITLE5=Timur
TTITLE6=Massazh
TTITLE7=Chubchik kucheryavy
TTITLE8=Neboskryoby
TTITLE9=Kupite oreshki
TTITLE10=Rostovsky urka
TTITLE11=Berlinskaya stena
TTITLE12=Zhizn-zhestyanka
TTITLE13=Rybatskaya
TTITLE14=Zhmerinka-New York
TTITLE15=V begah
TTITLE16=Zhizn dorozhaet
TTITLE17=S.O.S
TTITLE18=Ya malchishka sedoy
TTITLE19=Bedny Boyfriend
TTITLE20=Zoloto
EXTD=
EXTT0=
EXTT1=
EXTT2=
EXTT3=
EXTT4=
EXTT5=
EXTT6=
EXTT7=
EXTT8=
EXTT9=
EXTT10=
EXTT11=
EXTT12=
EXTT13=
EXTT14=
EXTT15=
EXTT16=
EXTT17=
EXTT18=
EXTT19=
EXTT20=
PLAYORDER=
